<svg version="1.1" id="Layer_1" xmlns="http://www.w3.org/2000/svg" xmlns:xlink="http://www.w3.org/1999/xlink" x="0px" y="0px"
	 width="100%" viewBox="0 0 1920 1080" enable-background="new 0 0 1920 1080" xml:space="preserve">
<path fill="#000000" opacity="1.000000" stroke="none" 
	d="
M1121.000000,1081.000000 
	C748.833374,1081.000000 377.166809,1080.993408 5.500224,1081.093018 
	C1.751679,1081.093994 0.905862,1080.249878 0.906912,1076.500244 
	C1.006864,719.500305 1.006888,362.500336 0.907020,5.500419 
	C0.905972,1.752274 1.749628,0.906623 5.499620,0.907192 
	C642.499512,1.003863 1279.499390,1.003851 1916.499268,0.907397 
	C1920.246460,0.906829 1921.094238,1.748356 1921.093140,5.499289 
	C1920.993164,362.499176 1920.993042,719.499084 1921.092773,1076.499023 
	C1921.093750,1080.245605 1920.252563,1081.094849 1916.500977,1081.093384 
	C1651.500610,1080.990601 1386.500366,1081.000000 1121.000000,1081.000000 
z"/>
<path fill="#FEFEFE" opacity="1.000000" stroke="none" 
	d="
M893.928650,780.889404 
	C886.029724,804.397766 878.175415,827.503418 870.549561,850.684265 
	C869.444397,854.043762 868.093445,855.293152 864.370361,855.262329 
	C839.875061,855.058899 815.377075,855.097473 790.880798,855.227783 
	C787.637634,855.244995 786.027222,854.549927 784.837952,851.189697 
	C735.337341,711.326599 685.711243,571.507874 636.100952,431.683594 
	C617.229675,378.495789 598.357544,325.308258 579.492859,272.118103 
	C578.948303,270.582703 578.484009,269.018860 577.828247,266.992126 
	C579.860596,266.992126 581.480896,266.992065 583.101257,266.992126 
	C630.261963,266.994293 677.423157,267.083649 724.582764,266.860779 
	C729.181274,266.839020 730.720093,268.414124 732.038513,272.444122 
	C761.911987,363.757568 791.927307,455.024658 821.901367,546.305237 
	C839.343201,599.421265 856.758362,652.545898 874.194702,705.663757 
	C874.600952,706.901489 875.115601,708.103699 875.678650,709.582336 
	C877.442017,708.534302 877.491577,706.730530 877.946594,705.354431 
	C915.559326,591.602905 953.116943,477.833160 990.671570,364.062439 
	C1000.864502,333.183289 1011.096375,302.316620 1021.131409,271.386169 
	C1022.244690,267.954742 1023.735413,266.837280 1027.342651,266.905487 
	C1040.123413,267.147064 1052.911621,266.999664 1066.114380,266.999664 
	C1008.658447,438.468567 951.352539,609.489685 893.928650,780.889404 
z"/>
<path fill="#FEFEFE" opacity="1.000000" stroke="none" 
	d="
M1076.999512,660.460022 
	C1064.499878,660.474792 1052.491821,660.753601 1040.505127,660.367065 
	C1036.048218,660.223328 1034.236328,661.556458 1032.769287,665.718933 
	C1011.031616,727.393494 989.060120,788.985657 967.327209,850.661987 
	C966.023926,854.360840 964.374878,855.287781 960.655212,855.248901 
	C941.657593,855.050232 922.656677,855.168335 903.656921,855.175415 
	C901.858948,855.176086 900.060974,855.175537 897.785400,855.175537 
	C903.716064,837.374695 909.450073,820.073608 915.242737,802.792236 
	C962.202454,662.696960 1009.163147,522.601990 1056.147339,382.514923 
	C1068.651855,345.231567 1081.251099,307.980011 1093.754761,270.696350 
	C1094.476562,268.543915 1094.895752,266.906525 1097.903076,266.923218 
	C1122.902100,267.062225 1147.902100,267.007812 1172.901855,267.027466 
	C1173.194214,267.027679 1173.486450,267.234375 1174.104370,267.467590 
	C1168.988892,281.996643 1163.912354,296.540863 1158.749512,311.054413 
	C1147.234253,343.425049 1135.748291,375.806549 1124.048950,408.110657 
	C1122.471069,412.467560 1123.734131,412.859436 1127.678223,412.851105 
	C1178.010498,412.744659 1228.343140,412.843964 1278.675171,412.689972 
	C1282.918579,412.677002 1284.171753,413.482147 1284.127563,418.000763 
	C1283.869629,444.331360 1283.909058,470.666412 1284.103027,496.998108 
	C1284.131226,500.818695 1283.130493,501.642670 1279.429688,501.635590 
	C1218.430420,501.518982 1157.430786,501.598511 1096.431641,501.467926 
	C1092.517212,501.459534 1090.633789,502.375854 1089.294800,506.284088 
	C1082.261108,526.813843 1074.953979,547.251465 1067.549194,567.651123 
	C1066.306396,571.074829 1066.826782,571.875366 1070.469482,571.867432 
	C1122.792603,571.753479 1175.116089,571.787781 1227.439209,571.661804 
	C1230.523438,571.654419 1231.288208,572.405579 1231.273438,575.497742 
	C1231.144287,602.496887 1231.109985,629.497681 1231.312134,656.495911 
	C1231.342896,660.598694 1229.479248,660.500122 1226.499023,660.496399 
	C1176.832520,660.434570 1127.166138,660.456543 1076.999512,660.460022 
z"/>
</svg>